_Griffith_Gothic-Thin_WebTT.ufo
<glyph name="exclam" format="1">
  <advance width="471.04"/>
  <unicode hex="0021"/>
  <outline>
    <contour>
      <point x="236" y="141" type="qcurve" smooth="yes"/>
      <point x="269.582089552" y="141.0"/>
      <point x="313.0" y="97.328358209"/>
      <point x="313" y="63" type="qcurve" smooth="yes"/>
      <point x="313.0" y="29.4179104478"/>
      <point x="269.582089552" y="-14.0"/>
      <point x="236" y="-14" type="qcurve" smooth="yes"/>
      <point x="201.671641791" y="-14.0"/>
      <point x="158.0" y="29.4179104478"/>
      <point x="158" y="63" type="qcurve" smooth="yes"/>
      <point x="158.0" y="97.328358209"/>
      <point x="201.671641791" y="141.0"/>
    </contour>
    <contour>
      <point x="180" y="1475" type="line"/>
      <point x="291" y="1475" type="line"/>
      <point x="254" y="406" type="line"/>
      <point x="217" y="406" type="line"/>
    </contour>
  </outline>
</glyph>
<glyph name="numbersign" format="1">
  <advance width="1228.8"/>
  <unicode hex="0023"/>
  <outline>
    <contour>
      <point x="1171" y="1030" type="line"/>
      <point x="1171" y="961" type="line"/>
      <point x="926" y="961" type="line"/>
      <point x="850" y="514" type="line"/>
      <point x="1102" y="514" type="line"/>
      <point x="1102" y="444" type="line"/>
      <point x="838" y="444" type="line"/>
      <point x="764" y="0" type="line"/>
      <point x="682" y="0" type="line"/>
      <point x="756" y="444" type="line"/>
      <point x="373" y="444" type="line"/>
      <point x="299" y="0" type="line"/>
      <point x="217" y="0" type="line"/>
      <point x="293" y="444" type="line"/>
      <point x="57" y="444" type="line"/>
      <point x="57" y="514" type="line"/>
      <point x="303" y="514" type="line"/>
      <point x="379" y="961" type="line"/>
      <point x="127" y="961" type="line"/>
      <point x="127" y="1030" type="line"/>
      <point x="391" y="1030" type="line"/>
      <point x="465" y="1475" type="line"/>
      <point x="547" y="1475" type="line"/>
      <point x="473" y="1030" type="line"/>
      <point x="856" y="1030" type="line"/>
      <point x="930" y="1475" type="line"/>
      <point x="1012" y="1475" type="line"/>
      <point x="936" y="1030" type="line"/>
    </contour>
    <contour>
      <point x="768" y="514" type="line"/>
      <point x="844" y="961" type="line"/>
      <point x="461" y="961" type="line"/>
      <point x="385" y="514" type="line"/>
    </contour>
  </outline>
</glyph>
<glyph name="ampersand" format="1">
  <advance width="1351.68"/>
  <unicode hex="0026"/>
  <outline>
    <contour>
      <point x="1366" y="80" type="qcurve"/>
      <point x="1366" y="6" type="line"/>
      <point x="1338.3880597" y="-2.9552238806"/>
      <point x="1287.56716418" y="-12.0"/>
      <point x="1251" y="-12" type="qcurve" smooth="yes"/>
      <point x="1157.71641791" y="-12.0"/>
      <point x="1014.7761194" y="65.7910447761"/>
      <point x="920" y="174" type="qcurve"/>
      <point x="831.194029851" y="82.2089552239"/>
      <point x="620.179104478" y="-20.0"/>
      <point x="506" y="-20" type="qcurve" smooth="yes"/>
      <point x="320.925373134" y="-20.0"/>
      <point x="76.0" y="214.134328358"/>
      <point x="76" y="391" type="qcurve" smooth="yes"/>
      <point x="76.0" y="528.313432836"/>
      <point x="232.0" y="754.268656716"/>
      <point x="432" y="858" type="qcurve"/>
      <point x="375.28358209" y="948.298507463"/>
      <point x="303.0" y="1123.91044776"/>
      <point x="303" y="1206" type="qcurve" smooth="yes"/>
      <point x="303.0" y="1329.88059701"/>
      <point x="470.626865672" y="1499.0"/>
      <point x="596" y="1499" type="qcurve" smooth="yes"/>
      <point x="725.850746269" y="1499.0"/>
      <point x="858.0" y="1333.20895522"/>
      <point x="858" y="1225" type="qcurve" smooth="yes"/>
      <point x="858.0" y="1102.6119403"/>
      <point x="691.268656716" y="913.611940299"/>
      <point x="545" y="836" type="qcurve"/>
      <point x="668.880597015" y="649.432835821"/>
      <point x="858.358208955" y="383.805970149"/>
      <point x="930" y="295" type="qcurve"/>
      <point x="1003.13432836" y="388.28358209"/>
      <point x="1122.46268657" y="633.194029851"/>
      <point x="1165" y="772" type="qcurve"/>
      <point x="1241" y="735" type="line"/>
      <point x="1192.49253731" y="590.223880597"/>
      <point x="1057.59701493" y="335.76119403"/>
      <point x="977" y="238" type="qcurve"/>
      <point x="1070.28358209" y="130.537313433"/>
      <point x="1195.02985075" y="61.0"/>
      <point x="1251" y="61" type="qcurve" smooth="yes"/>
      <point x="1291.29850746" y="61.0"/>
      <point x="1339.88059701" y="71.0447761194"/>
    </contour>
    <contour>
      <point x="506" y="53" type="qcurve" smooth="yes"/>
      <point x="608.23880597" y="53.0"/>
      <point x="794.895522388" y="147.417910448"/>
      <point x="874" y="231" type="qcurve"/>
      <point x="796.388059701" y="327.268656716"/>
      <point x="592.880597015" y="607.447761194"/>
      <point x="469" y="797" type="qcurve"/>
      <point x="304.074626866" y="709.686567164"/>
      <point x="166.0" y="514.402985075"/>
      <point x="166" y="395" type="qcurve" smooth="yes"/>
      <point x="166.0" y="253.208955224"/>
      <point x="357.492537313" y="53.0"/>
    </contour>
    <contour>
      <point x="506" y="895" type="qcurve"/>
      <point x="647.791044776" y="969.626865672"/>
      <point x="772.0" y="1126.2238806"/>
      <point x="772" y="1221" type="qcurve" smooth="yes"/>
      <point x="772.0" y="1310.55223881"/>
      <point x="678.328358209" y="1430.0"/>
      <point x="594" y="1430" type="qcurve" smooth="yes"/>
      <point x="493.253731343" y="1430.0"/>
      <point x="393.0" y="1298.80597015"/>
      <point x="393" y="1210" type="qcurve" smooth="yes"/>
      <point x="393.0" y="1136.86567164"/>
      <point x="453.76119403" y="976.343283582"/>
    </contour>
  </outline>
</glyph>
<glyph name="parenright" format="1">
  <advance width="604.16"/>
  <unicode hex="0029"/>
  <outline>
    <contour>
      <point x="150" y="1505" type="line"/>
      <point x="274.626865672" y="1360.2238806"/>
      <point x="477.0" y="937.835820896"/>
      <point x="477" y="655" type="qcurve" smooth="yes"/>
      <point x="477.0" y="372.164179104"/>
      <point x="274.626865672" y="-49.4776119403"/>
      <point x="150" y="-195" type="qcurve"/>
      <point x="76" y="-195" type="line"/>
      <point x="213.313432836" y="-26.3432835821"/>
      <point x="387.0" y="390.820895522"/>
      <point x="387" y="655" type="qcurve" smooth="yes"/>
      <point x="387.0" y="919.925373134"/>
      <point x="213.313432836" y="1337.08955224"/>
      <point x="76" y="1505" type="qcurve"/>
    </contour>
  </outline>
</glyph>
<glyph name="plus" format="1">
  <advance width="1228.8"/>
  <unicode hex="002B"/>
  <outline>
    <contour>
      <point x="1130" y="766" type="line"/>
      <point x="1130" y="688" type="line"/>
      <point x="655" y="688" type="line"/>
      <point x="655" y="211" type="line"/>
      <point x="573" y="211" type="line"/>
      <point x="573" y="688" type="line"/>
      <point x="98" y="688" type="line"/>
      <point x="98" y="766" type="line"/>
      <point x="573" y="766" type="line"/>
      <point x="573" y="1243" type="line"/>
      <point x="655" y="1243" type="line"/>
      <point x="655" y="766" type="line"/>
    </contour>
  </outline>
</glyph>
<glyph name="comma" format="1">
  <advance width="348.16"/>
  <unicode hex="002C"/>
  <outline>
    <contour>
      <point x="139" y="154" type="line"/>
      <point x="246" y="154" type="line"/>
      <point x="127" y="-246" type="line"/>
      <point x="68" y="-246" type="line"/>
    </contour>
  </outline>
</glyph>
<glyph name="hyphen" format="1">
  <advance width="614.4"/>
  <unicode hex="002D"/>
  <unicode hex="2010"/>
  <unicode hex="2011"/>
  <outline>
    <contour>
      <point x="532" y="610" type="line"/>
      <point x="532" y="528" type="line"/>
      <point x="82" y="528" type="line"/>
      <point x="82" y="610" type="line"/>
    </contour>
  </outline>
</glyph>
<glyph name="period" format="1">
  <advance width="348.16"/>
  <unicode hex="002E"/>
  <outline>
    <contour>
      <point x="174" y="141" type="qcurve" smooth="yes"/>
      <point x="207.582089552" y="141.0"/>
      <point x="252.0" y="97.328358209"/>
      <point x="252" y="63" type="qcurve" smooth="yes"/>
      <point x="252.0" y="29.4179104478"/>
      <point x="207.582089552" y="-14.0"/>
      <point x="174" y="-14" type="qcurve" smooth="yes"/>
      <point x="140.417910448" y="-14.0"/>
      <point x="96.0" y="29.4179104478"/>
      <point x="96" y="63" type="qcurve" smooth="yes"/>
      <point x="96.0" y="97.328358209"/>
      <point x="140.417910448" y="141.0"/>
    </contour>
  </outline>
</glyph>
<glyph name="zero" format="1">
  <advance width="1204.224"/>
  <unicode hex="0030"/>
  <outline>
    <contour>
      <point x="1087" y="741" type="qcurve" smooth="yes"/>
      <point x="1087" y="737" type="line" smooth="yes"/>
      <point x="1087.0" y="396.701492537"/>
      <point x="829.611940299" y="-25.0"/>
      <point x="602" y="-25" type="qcurve" smooth="yes"/>
      <point x="374.388059701" y="-25.0"/>
      <point x="117.0" y="391.955223881"/>
      <point x="117" y="733" type="qcurve" smooth="yes"/>
      <point x="117" y="737" type="line" smooth="yes"/>
      <point x="117.0" y="1078.04477612"/>
      <point x="374.388059701" y="1499.0"/>
      <point x="602" y="1499" type="qcurve" smooth="yes"/>
      <point x="829.611940299" y="1499.0"/>
      <point x="1087.0" y="1082.04477612"/>
    </contour>
    <contour>
      <point x="602" y="49" type="qcurve" smooth="yes"/>
      <point x="799.014925373" y="49.0"/>
      <point x="997.0" y="444.194029851"/>
      <point x="997" y="733" type="qcurve" smooth="yes"/>
      <point x="997" y="737" type="line" smooth="yes"/>
      <point x="997.0" y="1024.31343284"/>
      <point x="799.014925373" y="1425.0"/>
      <point x="602" y="1425" type="qcurve" smooth="yes"/>
      <point x="404.985074627" y="1425.0"/>
      <point x="207.0" y="1028.31343284"/>
      <point x="207" y="741" type="qcurve" smooth="yes"/>
      <point x="207" y="737" type="line" smooth="yes"/>
      <point x="207.0" y="448.194029851"/>
      <point x="404.985074627" y="49.0"/>
    </contour>
  </outline>
</glyph>
<glyph name="one" format="1">
  <advance width="901.12"/>
  <unicode hex="0031"/>
  <outline>
    <contour>
      <point x="848" y="74" type="line"/>
      <point x="848" y="0" type="line"/>
      <point x="113" y="0" type="line"/>
      <point x="113" y="74" type="line"/>
      <point x="442" y="74" type="line"/>
      <point x="442" y="1401" type="line"/>
      <point x="88" y="1401" type="line"/>
      <point x="88" y="1475" type="line"/>
      <point x="528" y="1475" type="line"/>
      <point x="528" y="74" type="line"/>
    </contour>
  </outline>
</glyph>
<glyph name="two" format="1">
  <advance width="1126.4"/>
  <unicode hex="0032"/>
  <outline>
    <contour>
      <point x="995" y="74" type="line"/>
      <point x="995" y="0" type="line"/>
      <point x="133" y="0" type="line"/>
      <point x="133" y="63" type="line"/>
      <point x="191.208955224" y="248.074626866"/>
      <point x="408.0" y="514.507462687"/>
      <point x="608" y="666" type="qcurve" smooth="yes"/>
      <point x="744.567164179" y="768.23880597"/>
      <point x="887.0" y="956.955223881"/>
      <point x="887" y="1098" type="qcurve" smooth="yes"/>
      <point x="887.0" y="1236.80597015"/>
      <point x="727.47761194" y="1425.0"/>
      <point x="573" y="1425" type="qcurve" smooth="yes"/>
      <point x="441.656716418" y="1425.0"/>
      <point x="266.641791045" y="1279.7761194"/>
      <point x="195" y="1135" type="qcurve"/>
      <point x="127" y="1169" type="line"/>
      <point x="198.641791045" y="1320.49253731"/>
      <point x="422.029850746" y="1499.0"/>
      <point x="578" y="1499" type="qcurve" smooth="yes"/>
      <point x="778.0" y="1499.0"/>
      <point x="977.0" y="1262.44776119"/>
      <point x="977" y="1102" type="qcurve" smooth="yes"/>
      <point x="977.0" y="935.582089552"/>
      <point x="803.955223881" y="717.910447761"/>
      <point x="645" y="600" type="qcurve" smooth="yes"/>
      <point x="469.626865672" y="470.149253731"/>
      <point x="265.298507463" y="223.253731343"/>
      <point x="225" y="74" type="qcurve"/>
    </contour>
  </outline>
</glyph>
<glyph name="three" format="1">
  <advance width="1044.48"/>
  <unicode hex="0033"/>
  <outline>
    <contour>
      <point x="530" y="817" type="line"/>
      <point x="701.641791045" y="844.611940299"/>
      <point x="950.0" y="694.119402985"/>
      <point x="950" y="518" type="qcurve" smooth="yes"/>
      <point x="950.0" y="265.76119403"/>
      <point x="393.985074627" y="-14.9850746269"/>
      <point x="41" y="-12" type="qcurve"/>
      <point x="41" y="61" type="line"/>
      <point x="383.537313433" y="61.0"/>
      <point x="860.0" y="296.835820896"/>
      <point x="860" y="514" type="qcurve" smooth="yes"/>
      <point x="860.0" y="640.865671642"/>
      <point x="708.865671642" y="766.0"/>
      <point x="582" y="766" type="qcurve" smooth="yes"/>
      <point x="512.597014925" y="766.0"/>
      <point x="420.014925373" y="748.671641791"/>
      <point x="373" y="733" type="qcurve"/>
      <point x="348" y="803" type="line"/>
      <point x="557.701492537" y="885.089552239"/>
      <point x="778.0" y="1057.67164179"/>
      <point x="778" y="1192" type="qcurve" smooth="yes"/>
      <point x="778.0" y="1297.2238806"/>
      <point x="647.910447761" y="1425.0"/>
      <point x="530" y="1425" type="qcurve" smooth="yes"/>
      <point x="429.253731343" y="1425.0"/>
      <point x="246.089552239" y="1318.79104478"/>
      <point x="164" y="1227" type="qcurve"/>
      <point x="113" y="1282" type="line"/>
      <point x="192.104477612" y="1369.31343284"/>
      <point x="401.417910448" y="1499.0"/>
      <point x="535" y="1499" type="qcurve" smooth="yes"/>
      <point x="693.955223881" y="1499.0"/>
      <point x="868.0" y="1331.85074627"/>
      <point x="868" y="1202" type="qcurve" smooth="yes"/>
      <point x="868.0" y="1070.65671642"/>
      <point x="683.462686567" y="892.164179104"/>
      <point x="526" y="825" type="qcurve"/>
    </contour>
  </outline>
</glyph>
<glyph name="four" format="1">
  <advance width="1146.88"/>
  <unicode hex="0034"/>
  <outline>
    <contour>
      <point x="1061" y="502" type="line"/>
      <point x="1061" y="432" type="line"/>
      <point x="866" y="432" type="line"/>
      <point x="866" y="0" type="line"/>
      <point x="780" y="0" type="line"/>
      <point x="780" y="432" type="line"/>
      <point x="88" y="432" type="line"/>
      <point x="88" y="539" type="line"/>
      <point x="719" y="1475" type="line"/>
      <point x="866" y="1475" type="line"/>
      <point x="866" y="502" type="line"/>
    </contour>
    <contour>
      <point x="168" y="502" type="line"/>
      <point x="780" y="502" type="line"/>
      <point x="780" y="1395" type="line"/>
      <point x="752" y="1395" type="line"/>
      <point x="168" y="530" type="line"/>
    </contour>
  </outline>
</glyph>
<glyph name="nine" format="1">
  <advance width="1116.16"/>
  <unicode hex="0039"/>
  <outline>
    <contour>
      <point x="545" y="1499" type="qcurve" smooth="yes"/>
      <point x="739.029850746" y="1499.0"/>
      <point x="1010.0" y="1230.73134328"/>
      <point x="1010" y="977" type="qcurve" smooth="yes"/>
      <point x="1010.0" y="721.776119403"/>
      <point x="764.641791045" y="204.47761194"/>
      <point x="543" y="0" type="qcurve"/>
      <point x="426" y="0" type="line"/>
      <point x="626.0" y="172.388059701"/>
      <point x="877.895522388" y="591.910447761"/>
      <point x="907" y="774" type="qcurve"/>
      <point x="893" y="774" type="line"/>
      <point x="821.358208955" y="679.223880597"/>
      <point x="637.850746269" y="569.0"/>
      <point x="508" y="569" type="qcurve" smooth="yes"/>
      <point x="324.417910448" y="569.0"/>
      <point x="68.0" y="812.805970149"/>
      <point x="68" y="1024" type="qcurve" smooth="yes"/>
      <point x="68.0" y="1235.19402985"/>
      <point x="353.955223881" y="1499.0"/>
    </contour>
    <contour>
      <point x="522" y="643" type="qcurve" smooth="yes"/>
      <point x="692.149253731" y="643.0"/>
      <point x="920.0" y="868.059701493"/>
      <point x="920" y="1030" type="qcurve" smooth="yes"/>
      <point x="920.0" y="1207.6119403"/>
      <point x="699.955223881" y="1425.0"/>
      <point x="541" y="1425" type="qcurve" smooth="yes"/>
      <point x="382.044776119" y="1425.0"/>
      <point x="158.0" y="1210.08955224"/>
      <point x="158" y="1028" type="qcurve" smooth="yes"/>
      <point x="158.0" y="851.134328358"/>
      <point x="357.074626866" y="643.0"/>
    </contour>
  </outline>
</glyph>
<glyph name="question" format="1">
  <advance width="870.4"/>
  <unicode hex="003F"/>
  <outline>
    <contour>
      <point x="436" y="1499" type="qcurve" smooth="yes"/>
      <point x="586.0" y="1499.0"/>
      <point x="768.0" y="1314.86567164"/>
      <point x="768" y="1188" type="qcurve" smooth="yes"/>
      <point x="768.0" y="1074.56716418"/>
      <point x="674.462686567" y="928.940298507"/>
      <point x="567" y="817" type="qcurve" smooth="yes"/>
      <point x="483.417910448" y="729.686567164"/>
      <point x="426.0" y="575.402985075"/>
      <point x="426" y="406" type="qcurve"/>
      <point x="369" y="406" type="line"/>
      <point x="366.014925373" y="594.805970149"/>
      <point x="420.23880597" y="774.746268657"/>
      <point x="518" y="874" type="qcurve" smooth="yes"/>
      <point x="600.835820896" y="958.328358209"/>
      <point x="678.0" y="1098.17910448"/>
      <point x="678" y="1184" type="qcurve" smooth="yes"/>
      <point x="678.0" y="1287.73134328"/>
      <point x="546.925373134" y="1425.0"/>
      <point x="432" y="1425" type="qcurve" smooth="yes"/>
      <point x="309.611940299" y="1425.0"/>
      <point x="167.507462687" y="1311.94029851"/>
      <point x="119" y="1200" type="qcurve"/>
      <point x="49" y="1231" type="line"/>
      <point x="102.731343284" y="1356.37313433"/>
      <point x="289.731343284" y="1499.0"/>
    </contour>
    <contour>
      <point x="397" y="141" type="qcurve" smooth="yes"/>
      <point x="430.582089552" y="141.0"/>
      <point x="475.0" y="97.328358209"/>
      <point x="475" y="63" type="qcurve" smooth="yes"/>
      <point x="475.0" y="29.4179104478"/>
      <point x="430.582089552" y="-14.0"/>
      <point x="397" y="-14" type="qcurve" smooth="yes"/>
      <point x="363.417910448" y="-14.0"/>
      <point x="319.0" y="29.4179104478"/>
      <point x="319" y="63" type="qcurve" smooth="yes"/>
      <point x="319.0" y="97.328358209"/>
      <point x="363.417910448" y="141.0"/>
    </contour>
  </outline>
</glyph>
<glyph name="B" format="1">
  <advance width="1239.04"/>
  <unicode hex="0042"/>
  <outline>
    <contour>
      <point x="805" y="797" type="line"/>
      <point x="949.776119403" y="769.388059701"/>
      <point x="1137.0" y="585.373134328"/>
      <point x="1137" y="410" type="qcurve" smooth="yes"/>
      <point x="1137.0" y="210.746268657"/>
      <point x="855.23880597" y="0.0"/>
      <point x="653" y="0" type="qcurve" smooth="yes"/>
      <point x="188" y="0" type="line"/>
      <point x="188" y="1475" type="line"/>
      <point x="666" y="1475" type="line" smooth="yes"/>
      <point x="854.059701493" y="1475.0"/>
      <point x="1075.0" y="1285.97014925"/>
      <point x="1075" y="1130" type="qcurve" smooth="yes"/>
      <point x="1075.0" y="980.746268657"/>
      <point x="908.731343284" y="831.119402985"/>
      <point x="805" y="805" type="qcurve"/>
    </contour>
    <contour>
      <point x="657" y="74" type="line" smooth="yes"/>
      <point x="833.119402985" y="74.0"/>
      <point x="1047.0" y="239.567164179"/>
      <point x="1047" y="403" type="qcurve" smooth="yes"/>
      <point x="1047.0" y="567.179104478"/>
      <point x="861.208955224" y="758.0"/>
      <point x="653" y="758" type="qcurve" smooth="yes"/>
      <point x="276" y="758" type="line"/>
      <point x="276" y="74" type="line"/>
    </contour>
    <contour>
      <point x="643" y="831" type="line" smooth="yes"/>
      <point x="797.47761194" y="831.0"/>
      <point x="985.0" y="976.746268657"/>
      <point x="985" y="1126" type="qcurve" smooth="yes"/>
      <point x="985.0" y="1259.58208955"/>
      <point x="809.985074627" y="1401.0"/>
      <point x="657" y="1401" type="qcurve" smooth="yes"/>
      <point x="276" y="1401" type="line"/>
      <point x="276" y="831" type="line"/>
    </contour>
  </outline>
</glyph>
<glyph name="C" format="1">
  <advance width="1167.36"/>
  <unicode hex="0043"/>
  <outline>
    <contour>
      <point x="997" y="434" type="qcurve"/>
      <point x="1077" y="410" type="line"/>
      <point x="1031.47761194" y="223.432835821"/>
      <point x="814.044776119" y="-25.0"/>
      <point x="623" y="-25" type="qcurve" smooth="yes"/>
      <point x="384.194029851" y="-25.0"/>
      <point x="117.0" y="391.955223881"/>
      <point x="117" y="733" type="qcurve" smooth="yes"/>
      <point x="117" y="737" type="line" smooth="yes"/>
      <point x="117.0" y="1078.04477612"/>
      <point x="383.71641791" y="1499.0"/>
      <point x="627" y="1499" type="qcurve" smooth="yes"/>
      <point x="799.388059701" y="1499.0"/>
      <point x="1021.47761194" y="1285.07462687"/>
      <point x="1067" y="1100" type="qcurve"/>
      <point x="987" y="1071" type="line"/>
      <point x="942.970149254" y="1238.91044776"/>
      <point x="768.791044776" y="1425.0"/>
      <point x="627" y="1425" type="qcurve" smooth="yes"/>
      <point x="415.805970149" y="1425.0"/>
      <point x="207.0" y="1035.02985075"/>
      <point x="207" y="741" type="qcurve" smooth="yes"/>
      <point x="207" y="737" type="line" smooth="yes"/>
      <point x="207.0" y="442.223880597"/>
      <point x="415.805970149" y="49.0"/>
      <point x="627" y="49" type="qcurve" smooth="yes"/>
      <point x="777.746268657" y="49.0"/>
      <point x="957.447761194" y="264.597014925"/>
    </contour>
  </outline>
</glyph>
<glyph name="D" format="1">
  <advance width="1261.568"/>
  <unicode hex="0044"/>
  <outline>
    <contour>
      <point x="1145" y="741" type="qcurve" smooth="yes"/>
      <point x="1145" y="737" type="line" smooth="yes"/>
      <point x="1145.0" y="392.970149254"/>
      <point x="807.701492537" y="0.0"/>
      <point x="498" y="0" type="qcurve" smooth="yes"/>
      <point x="188" y="0" type="line"/>
      <point x="188" y="1475" type="line"/>
      <point x="508" y="1475" type="line" smooth="yes"/>
      <point x="819.940298507" y="1475.0"/>
      <point x="1145.0" y="1082.04477612"/>
    </contour>
    <contour>
      <point x="508" y="74" type="line" smooth="yes"/>
      <point x="763.223880597" y="74.0"/>
      <point x="1055.0" y="415.089552239"/>
      <point x="1055" y="733" type="qcurve" smooth="yes"/>
      <point x="1055" y="737" type="line" smooth="yes"/>
      <point x="1055.0" y="1057.89552239"/>
      <point x="766.656716418" y="1401.0"/>
      <point x="498" y="1401" type="qcurve" smooth="yes"/>
      <point x="279" y="1401" type="line"/>
      <point x="279" y="74" type="line"/>
    </contour>
  </outline>
</glyph>
<glyph name="F" format="1">
  <advance width="1069.056"/>
  <unicode hex="0046"/>
  <outline>
    <contour>
      <point x="1018" y="1475" type="line"/>
      <point x="1018" y="1401" type="line"/>
      <point x="279" y="1401" type="line"/>
      <point x="279" y="780" type="line"/>
      <point x="889" y="780" type="line"/>
      <point x="889" y="707" type="line"/>
      <point x="279" y="707" type="line"/>
      <point x="279" y="0" type="line"/>
      <point x="188" y="0" type="line"/>
      <point x="188" y="1475" type="line"/>
    </contour>
  </outline>
</glyph>
<glyph name="H" format="1">
  <advance width="1269.76"/>
  <unicode hex="0048"/>
  <outline>
    <contour>
      <point x="1081" y="1475" type="line"/>
      <point x="1081" y="0" type="line"/>
      <point x="991" y="0" type="line"/>
      <point x="991" y="737" type="line"/>
      <point x="279" y="737" type="line"/>
      <point x="279" y="0" type="line"/>
      <point x="188" y="0" type="line"/>
      <point x="188" y="1475" type="line"/>
      <point x="279" y="1475" type="line"/>
      <point x="279" y="811" type="line"/>
      <point x="991" y="811" type="line"/>
      <point x="991" y="1475" type="line"/>
    </contour>
  </outline>
</glyph>
<glyph name="I" format="1">
  <advance width="761.856"/>
  <unicode hex="0049"/>
  <outline>
    <contour>
      <point x="639" y="63" type="line"/>
      <point x="639" y="0" type="line"/>
      <point x="123" y="0" type="line"/>
      <point x="123" y="63" type="line"/>
      <point x="336" y="63" type="line"/>
      <point x="336" y="1411" type="line"/>
      <point x="123" y="1411" type="line"/>
      <point x="123" y="1475" type="line"/>
      <point x="639" y="1475" type="line"/>
      <point x="639" y="1411" type="line"/>
      <point x="426" y="1411" type="line"/>
      <point x="426" y="63" type="line"/>
    </contour>
  </outline>
</glyph>
<glyph name="J" format="1">
  <advance width="962.56"/>
  <unicode hex="004A"/>
  <outline>
    <contour>
      <point x="784" y="1475" type="line"/>
      <point x="784" y="395" type="line" smooth="yes"/>
      <point x="784.0" y="203.955223881"/>
      <point x="598.895522388" y="-25.0"/>
      <point x="428" y="-25" type="qcurve" smooth="yes"/>
      <point x="266.059701493" y="-25.0"/>
      <point x="61.4776119403" y="154.985074627"/>
      <point x="57" y="352" type="qcurve"/>
      <point x="141" y="391" type="line"/>
      <point x="143.985074627" y="192.492537313"/>
      <point x="311.104477612" y="49.0"/>
      <point x="432" y="49" type="qcurve" smooth="yes"/>
      <point x="548.417910448" y="49.0"/>
      <point x="694.0" y="215.626865672"/>
      <point x="694" y="391" type="qcurve" smooth="yes"/>
      <point x="694" y="1475" type="line"/>
    </contour>
  </outline>
</glyph>
<glyph name="L" format="1">
  <advance width="1032.192"/>
  <unicode hex="004C"/>
  <outline>
    <contour>
      <point x="997" y="74" type="line"/>
      <point x="997" y="0" type="line"/>
      <point x="188" y="0" type="line"/>
      <point x="188" y="1475" type="line"/>
      <point x="279" y="1475" type="line"/>
      <point x="279" y="74" type="line"/>
    </contour>
  </outline>
</glyph>
<glyph name="N" format="1">
  <advance width="1310.72"/>
  <unicode hex="004E"/>
  <outline>
    <contour>
      <point x="1122" y="1475" type="line"/>
      <point x="1122" y="0" type="line"/>
      <point x="977" y="0" type="line"/>
      <point x="291" y="1386" type="line"/>
      <point x="274" y="1386" type="line"/>
      <point x="274" y="0" type="line"/>
      <point x="188" y="0" type="line"/>
      <point x="188" y="1475" type="line"/>
      <point x="342" y="1475" type="line"/>
      <point x="1020" y="104" type="line"/>
      <point x="1036" y="104" type="line"/>
      <point x="1036" y="1475" type="line"/>
    </contour>
  </outline>
</glyph>
<glyph name="P" format="1">
  <advance width="1155.072"/>
  <unicode hex="0050"/>
  <outline>
    <contour>
      <point x="598" y="1475" type="line" smooth="yes"/>
      <point x="818.149253731" y="1475.0"/>
      <point x="1063.0" y="1260.01492537"/>
      <point x="1063" y="1063" type="qcurve" smooth="yes"/>
      <point x="1063.0" y="865.985074627"/>
      <point x="817.611940299" y="647.0"/>
      <point x="590" y="647" type="qcurve" smooth="yes"/>
      <point x="279" y="647" type="line"/>
      <point x="279" y="0" type="line"/>
      <point x="188" y="0" type="line"/>
      <point x="188" y="1475" type="line"/>
    </contour>
    <contour>
      <point x="600" y="721" type="line" smooth="yes"/>
      <point x="779.104477612" y="721.0"/>
      <point x="973.0" y="888.850746269"/>
      <point x="973" y="1059" type="qcurve" smooth="yes"/>
      <point x="973.0" y="1222.43283582"/>
      <point x="779.552238806" y="1401.0"/>
      <point x="590" y="1401" type="qcurve" smooth="yes"/>
      <point x="279" y="1401" type="line"/>
      <point x="279" y="721" type="line"/>
    </contour>
  </outline>
</glyph>
<glyph name="Q" format="1">
  <advance width="1245.184"/>
  <unicode hex="0051"/>
  <outline>
    <contour>
      <point x="1212" y="-119" type="qcurve"/>
      <point x="1212" y="-193" type="line"/>
      <point x="1192.59701493" y="-198.970149254"/>
      <point x="1148.65671642" y="-203.0"/>
      <point x="1130" y="-203" type="qcurve" smooth="yes"/>
      <point x="1058.35820896" y="-203.0"/>
      <point x="967.014925373" y="-148.656716418"/>
      <point x="920" y="-80" type="qcurve" smooth="yes"/>
      <point x="842" y="35" type="line"/>
      <point x="792.746268657" y="5.89552238806"/>
      <point x="684.194029851" y="-25.0"/>
      <point x="623" y="-25" type="qcurve" smooth="yes"/>
      <point x="382.701492537" y="-25.0"/>
      <point x="117.0" y="391.955223881"/>
      <point x="117" y="733" type="qcurve" smooth="yes"/>
      <point x="117" y="737" type="line" smooth="yes"/>
      <point x="117.0" y="1078.04477612"/>
      <point x="382.701492537" y="1499.0"/>
      <point x="623" y="1499" type="qcurve" smooth="yes"/>
      <point x="862.552238806" y="1499.0"/>
      <point x="1128.0" y="1082.04477612"/>
      <point x="1128" y="741" type="qcurve" smooth="yes"/>
      <point x="1128" y="737" type="line" smooth="yes"/>
      <point x="1128.0" y="513.865671642"/>
      <point x="1007.71641791" y="172.776119403"/>
      <point x="901" y="78" type="qcurve"/>
      <point x="987" y="-41" type="line" smooth="yes"/>
      <point x="1019.08955224" y="-83.5373134328"/>
      <point x="1087.23880597" y="-129.0"/>
      <point x="1135" y="-129" type="qcurve" smooth="yes"/>
      <point x="1152.91044776" y="-129.0"/>
      <point x="1192.59701493" y="-123.47761194"/>
    </contour>
    <contour>
      <point x="858" y="137" type="line"/>
      <point x="949.791044776" y="224.313432836"/>
      <point x="1038.0" y="535.985074627"/>
      <point x="1038" y="733" type="qcurve" smooth="yes"/>
      <point x="1038" y="737" type="line" smooth="yes"/>
      <point x="1038.0" y="1030.28358209"/>
      <point x="830.462686567" y="1425.0"/>
      <point x="623" y="1425" type="qcurve" smooth="yes"/>
      <point x="414.791044776" y="1425.0"/>
      <point x="207.0" y="1035.02985075"/>
      <point x="207" y="741" type="qcurve" smooth="yes"/>
      <point x="207" y="737" type="line" smooth="yes"/>
      <point x="207.0" y="442.223880597"/>
      <point x="414.791044776" y="47.0"/>
      <point x="623" y="47" type="qcurve" smooth="yes"/>
      <point x="673.0" y="47.0"/>
      <point x="762.940298507" y="70.8656716418"/>
      <point x="801" y="94" type="qcurve"/>
      <point x="602" y="385" type="line"/>
      <point x="653" y="418" type="line"/>
    </contour>
  </outline>
</glyph>
<glyph name="T" format="1">
  <advance width="1130.496"/>
  <unicode hex="0054"/>
  <outline>
    <contour>
      <point x="1090" y="1475" type="line"/>
      <point x="1090" y="1401" type="line"/>
      <point x="610" y="1401" type="line"/>
      <point x="610" y="0" type="line"/>
      <point x="520" y="0" type="line"/>
      <point x="520" y="1401" type="line"/>
      <point x="41" y="1401" type="line"/>
      <point x="41" y="1475" type="line"/>
    </contour>
  </outline>
</glyph>
<glyph name="U" format="1">
  <advance width="1273.856"/>
  <unicode hex="0055"/>
  <outline>
    <contour>
      <point x="1096" y="1475" type="line"/>
      <point x="1096" y="496" type="line" smooth="yes"/>
      <point x="1096.0" y="220.626865672"/>
      <point x="829.537313433" y="-25.0"/>
      <point x="637" y="-25" type="qcurve" smooth="yes"/>
      <point x="444.462686567" y="-25.0"/>
      <point x="178.0" y="220.626865672"/>
      <point x="178" y="496" type="qcurve" smooth="yes"/>
      <point x="178" y="1475" type="line"/>
      <point x="268" y="1475" type="line"/>
      <point x="268" y="500" type="line" smooth="yes"/>
      <point x="268.0" y="261.194029851"/>
      <point x="477.567164179" y="49.0"/>
      <point x="641" y="49" type="qcurve" smooth="yes"/>
      <point x="804.432835821" y="49.0"/>
      <point x="1014.0" y="253.194029851"/>
      <point x="1014" y="492" type="qcurve" smooth="yes"/>
      <point x="1014" y="1475" type="line"/>
    </contour>
  </outline>
</glyph>
<glyph name="W" format="1">
  <advance width="1982.464"/>
  <unicode hex="0057"/>
  <outline>
    <contour>
      <point x="1765" y="1475" type="line"/>
      <point x="1853" y="1475" type="line"/>
      <point x="1450" y="-12" type="line"/>
      <point x="1337" y="-12" type="line"/>
      <point x="971" y="1378" type="line"/>
      <point x="950" y="1378" type="line"/>
      <point x="588" y="-12" type="line"/>
      <point x="475" y="-12" type="line"/>
      <point x="72" y="1475" type="line"/>
      <point x="164" y="1475" type="line"/>
      <point x="524" y="80" type="line"/>
      <point x="541" y="80" type="line"/>
      <point x="895" y="1475" type="line"/>
      <point x="1030" y="1475" type="line"/>
      <point x="1389" y="80" type="line"/>
      <point x="1405" y="80" type="line"/>
    </contour>
  </outline>
</glyph>
<glyph name="X" format="1">
  <advance width="1269.76"/>
  <unicode hex="0058"/>
  <outline>
    <contour>
      <point x="682" y="764" type="line"/>
      <point x="1200" y="0" type="line"/>
      <point x="1098" y="0" type="line"/>
      <point x="633" y="696" type="line"/>
      <point x="166" y="0" type="line"/>
      <point x="70" y="0" type="line"/>
      <point x="588" y="758" type="line"/>
      <point x="102" y="1475" type="line"/>
      <point x="205" y="1475" type="line"/>
      <point x="637" y="825" type="line"/>
      <point x="1071" y="1475" type="line"/>
      <point x="1167" y="1475" type="line"/>
    </contour>
  </outline>
</glyph>
<glyph name="Y" format="1">
  <advance width="1245.184"/>
  <unicode hex="0059"/>
  <outline>
    <contour>
      <point x="1108" y="1475" type="line"/>
      <point x="1204" y="1475" type="line"/>
      <point x="668" y="565" type="line"/>
      <point x="668" y="0" type="line"/>
      <point x="578" y="0" type="line"/>
      <point x="578" y="565" type="line"/>
      <point x="41" y="1475" type="line"/>
      <point x="141" y="1475" type="line"/>
      <point x="625" y="635" type="line"/>
    </contour>
  </outline>
</glyph>
<glyph name="Z" format="1">
  <advance width="1105.92"/>
  <unicode hex="005A"/>
  <outline>
    <contour>
      <point x="1028" y="74" type="line"/>
      <point x="1028" y="0" type="line"/>
      <point x="78" y="0" type="line"/>
      <point x="78" y="63" type="line"/>
      <point x="926" y="1401" type="line"/>
      <point x="119" y="1401" type="line"/>
      <point x="119" y="1475" type="line"/>
      <point x="1028" y="1475" type="line"/>
      <point x="1028" y="1411" type="line"/>
      <point x="180" y="74" type="line"/>
    </contour>
  </outline>
</glyph>
<glyph name="bracketleft" format="1">
  <advance width="663.552"/>
  <unicode hex="005B"/>
  <outline>
    <contour>
      <point x="610" y="-98" type="line"/>
      <point x="610" y="-164" type="line"/>
      <point x="147" y="-178" type="line"/>
      <point x="147" y="1489" type="line"/>
      <point x="610" y="1475" type="line"/>
      <point x="610" y="1409" type="line"/>
      <point x="231" y="1423" type="line"/>
      <point x="231" y="-113" type="line"/>
    </contour>
  </outline>
</glyph>
<glyph name="bracketright" format="1">
  <advance width="663.552"/>
  <unicode hex="005D"/>
  <outline>
    <contour>
      <point x="516" y="1489" type="line"/>
      <point x="516" y="-178" type="line"/>
      <point x="53" y="-164" type="line"/>
      <point x="53" y="-98" type="line"/>
      <point x="432" y="-113" type="line"/>
      <point x="432" y="1423" type="line"/>
      <point x="53" y="1409" type="line"/>
      <point x="53" y="1475" type="line"/>
    </contour>
  </outline>
</glyph>
<glyph name="asciicircum" format="1">
  <advance width="1126.4"/>
  <unicode hex="005E"/>
  <outline>
    <contour>
      <point x="610" y="1485" type="line"/>
      <point x="1010" y="834" type="line"/>
      <point x="946" y="834" type="line"/>
      <point x="563" y="1395" type="line"/>
      <point x="180" y="834" type="line"/>
      <point x="117" y="834" type="line"/>
      <point x="516" y="1485" type="line"/>
    </contour>
  </outline>
</glyph>
<glyph name="grave" format="1">
  <advance width="1024.0"/>
  <unicode hex="0060"/>
  <outline>
    <contour>
      <point x="465" y="1522" type="line"/>
      <point x="659" y="1212" type="line"/>
      <point x="600" y="1212" type="line"/>
      <point x="328" y="1522" type="line"/>
    </contour>
  </outline>
</glyph>
<glyph name="b" format="1">
  <advance width="1028.096"/>
  <unicode hex="0062"/>
  <outline>
    <contour>
      <point x="934" y="528" type="qcurve" smooth="yes"/>
      <point x="934" y="524" type="line" smooth="yes"/>
      <point x="934.0" y="258.328358209"/>
      <point x="709.059701493" y="-20.0"/>
      <point x="571" y="-20" type="qcurve" smooth="yes"/>
      <point x="459.805970149" y="-20.0"/>
      <point x="306.71641791" y="121.582089552"/>
      <point x="250" y="238" type="qcurve"/>
      <point x="238" y="238" type="line"/>
      <point x="238" y="-18" type="line"/>
      <point x="156" y="27" type="line"/>
      <point x="156" y="1516" type="line"/>
      <point x="238" y="1561" type="line"/>
      <point x="238" y="807" type="line"/>
      <point x="250" y="807" type="line"/>
      <point x="311.194029851" y="926.402985075"/>
      <point x="457.835820896" y="1069.0"/>
      <point x="575" y="1069" type="qcurve" smooth="yes"/>
      <point x="720.52238806" y="1069.0"/>
      <point x="934.0" y="795.910447761"/>
    </contour>
    <contour>
      <point x="561" y="45" type="qcurve" smooth="yes"/>
      <point x="677.417910448" y="45.0"/>
      <point x="852.0" y="280.955223881"/>
      <point x="852" y="522" type="qcurve" smooth="yes"/>
      <point x="852.0" y="775.731343284"/>
      <point x="672.432835821" y="1004.0"/>
      <point x="559" y="1004" type="qcurve" smooth="yes"/>
      <point x="421.686567164" y="1004.0"/>
      <point x="231.0" y="704.597014925"/>
      <point x="231" y="524" type="qcurve" smooth="yes"/>
      <point x="231.0" y="344.149253731"/>
      <point x="420.701492537" y="45.0"/>
    </contour>
  </outline>
</glyph>
<glyph name="h" format="1">
  <advance width="978.944"/>
  <unicode hex="0068"/>
  <outline>
    <contour>
      <point x="831" y="831" type="qcurve" smooth="yes"/>
      <point x="831" y="0" type="line"/>
      <point x="750" y="0" type="line"/>
      <point x="750" y="815" type="line" smooth="yes"/>
      <point x="750.0" y="902.313432836"/>
      <point x="671.134328358" y="993.0"/>
      <point x="598" y="993" type="qcurve" smooth="yes"/>
      <point x="513.671641791" y="993.0"/>
      <point x="324.567164179" y="837.014925373"/>
      <point x="238" y="690" type="qcurve"/>
      <point x="238" y="0" type="line"/>
      <point x="156" y="0" type="line"/>
      <point x="156" y="1516" type="line"/>
      <point x="238" y="1561" type="line"/>
      <point x="238" y="786" type="line"/>
      <point x="250" y="786" type="line"/>
      <point x="329.104477612" y="905.402985075"/>
      <point x="512.552238806" y="1059.0"/>
      <point x="623" y="1059" type="qcurve" smooth="yes"/>
      <point x="729.71641791" y="1059.0"/>
      <point x="831.0" y="928.014925373"/>
    </contour>
  </outline>
</glyph>
<glyph name="m" format="1">
  <advance width="1556.48"/>
  <unicode hex="006D"/>
  <outline>
    <contour>
      <point x="1409" y="831" type="qcurve" smooth="yes"/>
      <point x="1409" y="0" type="line"/>
      <point x="1327" y="0" type="line"/>
      <point x="1327" y="815" type="line" smooth="yes"/>
      <point x="1327.0" y="902.313432836"/>
      <point x="1253.13432836" y="993.0"/>
      <point x="1180" y="993" type="qcurve" smooth="yes"/>
      <point x="1095.67164179" y="993.0"/>
      <point x="910.313432836" y="837.014925373"/>
      <point x="823" y="690" type="qcurve"/>
      <point x="823" y="0" type="line"/>
      <point x="741" y="0" type="line"/>
      <point x="741" y="815" type="line" smooth="yes"/>
      <point x="741.0" y="902.313432836"/>
      <point x="667.134328358" y="993.0"/>
      <point x="594" y="993" type="qcurve" smooth="yes"/>
      <point x="509.671641791" y="993.0"/>
      <point x="324.567164179" y="837.014925373"/>
      <point x="238" y="690" type="qcurve"/>
      <point x="238" y="0" type="line"/>
      <point x="156" y="0" type="line"/>
      <point x="156" y="1022" type="line"/>
      <point x="238" y="1067" type="line"/>
      <point x="238" y="786" type="line"/>
      <point x="250" y="786" type="line"/>
      <point x="329.104477612" y="905.402985075"/>
      <point x="508.298507463" y="1059.0"/>
      <point x="618" y="1059" type="qcurve" smooth="yes"/>
      <point x="725.462686567" y="1059.0"/>
      <point x="823.0" y="928.014925373"/>
      <point x="823" y="831" type="qcurve" smooth="yes"/>
      <point x="823" y="791" type="line"/>
      <point x="836" y="791" type="line"/>
      <point x="915.104477612" y="909.656716418"/>
      <point x="1094.29850746" y="1059.0"/>
      <point x="1204" y="1059" type="qcurve" smooth="yes"/>
      <point x="1311.46268657" y="1059.0"/>
      <point x="1409.0" y="928.014925373"/>
    </contour>
  </outline>
</glyph>
<glyph name="o" format="1">
  <advance width="983.04"/>
  <unicode hex="006F"/>
  <outline>
    <contour>
      <point x="889" y="528" type="qcurve" smooth="yes"/>
      <point x="889" y="524" type="line" smooth="yes"/>
      <point x="889.0" y="288.925373134"/>
      <point x="671.850746269" y="-20.0"/>
      <point x="492" y="-20" type="qcurve" smooth="yes"/>
      <point x="311.402985075" y="-20.0"/>
      <point x="94.0" y="284.925373134"/>
      <point x="94" y="520" type="qcurve" smooth="yes"/>
      <point x="94" y="524" type="line" smooth="yes"/>
      <point x="94.0" y="759.820895522"/>
      <point x="311.402985075" y="1069.0"/>
      <point x="492" y="1069" type="qcurve" smooth="yes"/>
      <point x="671.850746269" y="1069.0"/>
      <point x="889.0" y="763.820895522"/>
    </contour>
    <contour>
      <point x="492" y="45" type="qcurve" smooth="yes"/>
      <point x="641.253731343" y="45.0"/>
      <point x="807.0" y="314.029850746"/>
      <point x="807" y="520" type="qcurve" smooth="yes"/>
      <point x="807" y="524" type="line" smooth="yes"/>
      <point x="807.0" y="732.208955224"/>
      <point x="641.253731343" y="1004.0"/>
      <point x="492" y="1004" type="qcurve" smooth="yes"/>
      <point x="342.0" y="1004.0"/>
      <point x="176.0" y="734.71641791"/>
      <point x="176" y="528" type="qcurve" smooth="yes"/>
      <point x="176" y="524" type="line" smooth="yes"/>
      <point x="176.0" y="316.537313433"/>
      <point x="342.0" y="45.0"/>
    </contour>
  </outline>
</glyph>
<glyph name="t" format="1">
  <advance width="686.08"/>
  <unicode hex="0074"/>
  <outline>
    <contour>
      <point x="641" y="121" type="qcurve"/>
      <point x="641" y="47" type="line"/>
      <point x="585.776119403" y="13.4179104478"/>
      <point x="485.223880597" y="-20.0"/>
      <point x="430" y="-20" type="qcurve" smooth="yes"/>
      <point x="349.402985075" y="-20.0"/>
      <point x="236.0" y="68.2985074627"/>
      <point x="236" y="178" type="qcurve" smooth="yes"/>
      <point x="236" y="973" type="line"/>
      <point x="39" y="973" type="line"/>
      <point x="39" y="1038" type="line"/>
      <point x="236" y="1038" type="line"/>
      <point x="236" y="1389" type="line"/>
      <point x="317" y="1499" type="line"/>
      <point x="317" y="1038" type="line"/>
      <point x="584" y="1038" type="line"/>
      <point x="584" y="973" type="line"/>
      <point x="317" y="973" type="line"/>
      <point x="317" y="186" type="line" smooth="yes"/>
      <point x="317.0" y="112.865671642"/>
      <point x="388.507462687" y="45.0"/>
      <point x="440" y="45" type="qcurve" smooth="yes"/>
      <point x="484.776119403" y="45.0"/>
      <point x="579.805970149" y="81.447761194"/>
    </contour>
  </outline>
</glyph>
<glyph name="u" format="1">
  <advance width="978.944"/>
  <unicode hex="0075"/>
  <outline>
    <contour>
      <point x="823" y="1049" type="line"/>
      <point x="823" y="27" type="line"/>
      <point x="741" y="-18" type="line"/>
      <point x="741" y="262" type="line"/>
      <point x="729" y="262" type="line"/>
      <point x="649.895522388" y="142.597014925"/>
      <point x="466.447761194" y="-10.0"/>
      <point x="356" y="-10" type="qcurve" smooth="yes"/>
      <point x="249.28358209" y="-10.0"/>
      <point x="147.0" y="120.731343284"/>
      <point x="147" y="217" type="qcurve" smooth="yes"/>
      <point x="147" y="1049" type="line"/>
      <point x="229" y="1049" type="line"/>
      <point x="229" y="233" type="line" smooth="yes"/>
      <point x="229.0" y="146.432835821"/>
      <point x="307.865671642" y="55.0"/>
      <point x="381" y="55" type="qcurve" smooth="yes"/>
      <point x="465.328358209" y="55.0"/>
      <point x="654.432835821" y="211.731343284"/>
      <point x="741" y="358" type="qcurve"/>
      <point x="741" y="1049" type="line"/>
    </contour>
  </outline>
</glyph>
<glyph name="v" format="1">
  <advance width="901.12"/>
  <unicode hex="0076"/>
  <outline>
    <contour>
      <point x="758" y="1049" type="line"/>
      <point x="840" y="1049" type="line"/>
      <point x="492" y="-12" type="line"/>
      <point x="410" y="-12" type="line"/>
      <point x="61" y="1049" type="line"/>
      <point x="147" y="1049" type="line"/>
      <point x="453" y="76" type="line"/>
    </contour>
  </outline>
</glyph>
<glyph name="y" format="1">
  <advance width="901.12"/>
  <unicode hex="0079"/>
  <outline>
    <contour>
      <point x="760" y="1049" type="line"/>
      <point x="840" y="1049" type="line"/>
      <point x="449" y="-141" type="line" smooth="yes"/>
      <point x="402.731343284" y="-280.552238806"/>
      <point x="269.28358209" y="-395.0"/>
      <point x="176" y="-395" type="qcurve" smooth="yes"/>
      <point x="137.940298507" y="-395.0"/>
      <point x="72.1044776119" y="-378.432835821"/>
      <point x="43" y="-365" type="qcurve"/>
      <point x="43" y="-281" type="line"/>
      <point x="82" y="-281" type="line"/>
      <point x="96.9253731343" y="-306.373134328"/>
      <point x="148.223880597" y="-336.0"/>
      <point x="193" y="-336" type="qcurve" smooth="yes"/>
      <point x="251.955223881" y="-336.0"/>
      <point x="338.910447761" y="-243.044776119"/>
      <point x="371" y="-152" type="qcurve" smooth="yes"/>
      <point x="416" y="-23" type="line"/>
      <point x="61" y="1049" type="line"/>
      <point x="147" y="1049" type="line"/>
      <point x="455" y="74" type="line"/>
    </contour>
  </outline>
</glyph>
<glyph name="z" format="1">
  <advance width="829.44"/>
  <unicode hex="007A"/>
  <outline>
    <contour>
      <point x="760" y="66" type="line"/>
      <point x="760" y="0" type="line"/>
      <point x="66" y="0" type="line"/>
      <point x="66" y="55" type="line"/>
      <point x="664" y="973" type="line"/>
      <point x="96" y="973" type="line"/>
      <point x="96" y="1038" type="line"/>
      <point x="760" y="1038" type="line"/>
      <point x="760" y="983" type="line"/>
      <point x="162" y="66" type="line"/>
    </contour>
  </outline>
</glyph>
<glyph name="bar" format="1">
  <advance width="466.944"/>
  <unicode hex="007C"/>
  <outline>
    <contour>
      <point x="272" y="1561" type="line"/>
      <point x="272" y="-385" type="line"/>
      <point x="195" y="-385" type="line"/>
      <point x="195" y="1561" type="line"/>
    </contour>
  </outline>
</glyph>
<glyph name="asciitilde" format="1">
  <advance width="778.24"/>
  <unicode hex="007E"/>
  <outline>
    <contour>
      <point x="631" y="666" type="qcurve"/>
      <point x="692" y="666" type="line"/>
      <point x="690.507462687" y="566.0"/>
      <point x="613.626865672" y="471.0"/>
      <point x="539" y="471" type="qcurve" smooth="yes"/>
      <point x="459.149253731" y="471.0"/>
      <point x="296.447761194" y="590.0"/>
      <point x="236" y="590" type="qcurve" smooth="yes"/>
      <point x="189.731343284" y="590.0"/>
      <point x="147.0" y="534.701492537"/>
      <point x="147" y="475" type="qcurve"/>
      <point x="86" y="475" type="line"/>
      <point x="87.4925373134" y="574.253731343"/>
      <point x="164.626865672" y="670.0"/>
      <point x="240" y="670" type="qcurve" smooth="yes"/>
      <point x="319.104477612" y="670.0"/>
      <point x="481.805970149" y="551.0"/>
      <point x="543" y="551" type="qcurve" smooth="yes"/>
      <point x="588.52238806" y="551.0"/>
      <point x="631.0" y="606.298507463"/>
    </contour>
  </outline>
</glyph>
<glyph name="cent" format="1">
  <advance width="903.168"/>
  <unicode hex="00A2"/>
  <outline>
    <contour>
      <point x="774" y="256" type="qcurve"/>
      <point x="834" y="227" type="line"/>
      <point x="784.746268657" y="115.805970149"/>
      <point x="621.910447761" y="-20.0"/>
      <point x="504" y="-20" type="qcurve" smooth="yes"/>
      <point x="464.447761194" y="-20.0"/>
      <point x="392.089552239" y="-4.41791044776"/>
      <point x="360" y="12" type="qcurve"/>
      <point x="285" y="-195" type="line"/>
      <point x="219" y="-195" type="line"/>
      <point x="305" y="43" type="line"/>
      <point x="216.194029851" y="108.671641791"/>
      <point x="117.0" y="358.059701493"/>
      <point x="117" y="520" type="qcurve" smooth="yes"/>
      <point x="117" y="524" type="line" smooth="yes"/>
      <point x="117.0" y="759.820895522"/>
      <point x="332.388059701" y="1069.0"/>
      <point x="510" y="1069" type="qcurve" smooth="yes"/>
      <point x="555.52238806" y="1069.0"/>
      <point x="633.910447761" y="1050.14925373"/>
      <point x="666" y="1030" type="qcurve"/>
      <point x="743" y="1243" type="line"/>
      <point x="809" y="1243" type="line"/>
      <point x="383" y="76" type="line"/>
      <point x="410.611940299" y="58.8358208955"/>
      <point x="472.925373134" y="43.0"/>
      <point x="508" y="43" type="qcurve" smooth="yes"/>
      <point x="601.28358209" y="43.0"/>
      <point x="726.985074627" y="153.76119403"/>
    </contour>
    <contour>
      <point x="332" y="113" type="qcurve"/>
      <point x="643" y="967" type="line"/>
      <point x="615.388059701" y="984.910447761"/>
      <point x="547.044776119" y="1006.0"/>
      <point x="506" y="1006" type="qcurve" smooth="yes"/>
      <point x="363.462686567" y="1006.0"/>
      <point x="197.0" y="736.208955224"/>
      <point x="197" y="528" type="qcurve" smooth="yes"/>
      <point x="197" y="524" type="line" smooth="yes"/>
      <point x="197.0" y="389.671641791"/>
      <point x="267.820895522" y="175.686567164"/>
    </contour>
  </outline>
</glyph>
<glyph name="yen" format="1">
  <advance width="1228.8"/>
  <unicode hex="00A5"/>
  <outline>
    <contour>
      <point x="1079" y="1475" type="line"/>
      <point x="1176" y="1475" type="line"/>
      <point x="772" y="768" type="line"/>
      <point x="1073" y="768" type="line"/>
      <point x="1073" y="696" type="line"/>
      <point x="731" y="696" type="line"/>
      <point x="657" y="565" type="line"/>
      <point x="657" y="397" type="line"/>
      <point x="1073" y="397" type="line"/>
      <point x="1073" y="326" type="line"/>
      <point x="657" y="326" type="line"/>
      <point x="657" y="0" type="line"/>
      <point x="571" y="0" type="line"/>
      <point x="571" y="326" type="line"/>
      <point x="156" y="326" type="line"/>
      <point x="156" y="397" type="line"/>
      <point x="571" y="397" type="line"/>
      <point x="571" y="565" type="line"/>
      <point x="498" y="696" type="line"/>
      <point x="156" y="696" type="line"/>
      <point x="156" y="768" type="line"/>
      <point x="457" y="768" type="line"/>
      <point x="53" y="1475" type="line"/>
      <point x="154" y="1475" type="line"/>
      <point x="616" y="631" type="line"/>
    </contour>
  </outline>
</glyph>
<glyph name="section" format="1">
  <advance width="1163.264"/>
  <unicode hex="00A7"/>
  <outline>
    <contour>
      <point x="676" y="1020" type="qcurve" smooth="yes"/>
      <point x="883.462686567" y="961.791044776"/>
      <point x="1075.0" y="805.746268657"/>
      <point x="1075" y="705" type="qcurve" smooth="yes"/>
      <point x="1075.0" y="610.223880597"/>
      <point x="891.895522388" y="456.462686567"/>
      <point x="721" y="449" type="qcurve"/>
      <point x="721" y="436" type="line"/>
      <point x="841.895522388" y="400.925373134"/>
      <point x="940.0" y="283.119402985"/>
      <point x="940" y="207" type="qcurve" smooth="yes"/>
      <point x="940.0" y="101.776119403"/>
      <point x="742.029850746" y="-25.0"/>
      <point x="598" y="-25" type="qcurve" smooth="yes"/>
      <point x="488.298507463" y="-25.0"/>
      <point x="317.268656716" y="21.2537313433"/>
      <point x="221" y="72" type="qcurve"/>
      <point x="262" y="141" type="line"/>
      <point x="344.835820896" y="92.4925373134"/>
      <point x="503.253731343" y="45.0"/>
      <point x="604" y="45" type="qcurve" smooth="yes"/>
      <point x="717.432835821" y="45.0"/>
      <point x="858.0" y="131.328358209"/>
      <point x="858" y="197" type="qcurve" smooth="yes"/>
      <point x="858.0" y="271.626865672"/>
      <point x="731.776119403" y="385.597014925"/>
      <point x="487" y="455" type="qcurve" smooth="yes"/>
      <point x="279.537313433" y="512.462686567"/>
      <point x="88.0" y="669.253731343"/>
      <point x="88" y="770" type="qcurve" smooth="yes"/>
      <point x="88.0" y="864.776119403"/>
      <point x="271.104477612" y="1018.53731343"/>
      <point x="442" y="1026" type="qcurve"/>
      <point x="442" y="1038" type="line"/>
      <point x="321.850746269" y="1073.07462687"/>
      <point x="223.0" y="1191.13432836"/>
      <point x="223" y="1268" type="qcurve" smooth="yes"/>
      <point x="223.0" y="1373.2238806"/>
      <point x="421.71641791" y="1499.0"/>
      <point x="565" y="1499" type="qcurve" smooth="yes"/>
      <point x="675.447761194" y="1499.0"/>
      <point x="845.731343284" y="1453.0"/>
      <point x="942" y="1403" type="qcurve"/>
      <point x="901" y="1333" type="line"/>
      <point x="818.910447761" y="1382.25373134"/>
      <point x="659.746268657" y="1430.0"/>
      <point x="559" y="1430" type="qcurve" smooth="yes"/>
      <point x="446.313432836" y="1430.0"/>
      <point x="305.0" y="1343.67164179"/>
      <point x="305" y="1278" type="qcurve" smooth="yes"/>
      <point x="305.0" y="1203.37313433"/>
      <point x="431.223880597" y="1088.65671642"/>
    </contour>
    <contour>
      <point x="705" y="500" type="qcurve" smooth="yes"/>
      <point x="825.149253731" y="500.0"/>
      <point x="991.0" y="604.208955224"/>
      <point x="991" y="696" type="qcurve" smooth="yes"/>
      <point x="991.0" y="768.388059701"/>
      <point x="861.671641791" y="891.253731343"/>
      <point x="696" y="942" type="qcurve" smooth="yes"/>
      <point x="636.298507463" y="960.656716418"/>
      <point x="527.656716418" y="975.0"/>
      <point x="459" y="975" type="qcurve" smooth="yes"/>
      <point x="338.104477612" y="975.0"/>
      <point x="172.0" y="869.791044776"/>
      <point x="172" y="778" type="qcurve" smooth="yes"/>
      <point x="172.0" y="706.358208955"/>
      <point x="302.074626866" y="582.746268657"/>
      <point x="467" y="532" type="qcurve" smooth="yes"/>
      <point x="526.701492537" y="514.089552239"/>
      <point x="635.597014925" y="500.0"/>
    </contour>
  </outline>
</glyph>
<glyph name="dieresis" format="1">
  <advance width="1024.0"/>
  <unicode hex="00A8"/>
  <outline>
    <contour>
      <point x="397" y="1366" type="line"/>
      <point x="397" y="1212" type="line"/>
      <point x="276" y="1212" type="line"/>
      <point x="276" y="1366" type="line"/>
    </contour>
    <contour>
      <point x="748" y="1366" type="line"/>
      <point x="748" y="1212" type="line"/>
      <point x="627" y="1212" type="line"/>
      <point x="627" y="1366" type="line"/>
    </contour>
  </outline>
</glyph>
<glyph name="guillemotleft" format="1">
  <advance width="901.12"/>
  <unicode hex="00AB"/>
  <outline>
    <contour>
      <point x="172" y="524" type="line"/>
      <point x="453" y="164" type="line"/>
      <point x="383" y="164" type="line"/>
      <point x="66" y="524" type="line"/>
      <point x="383" y="885" type="line"/>
      <point x="453" y="885" type="line"/>
    </contour>
    <contour>
      <point x="547" y="524" type="line"/>
      <point x="827" y="164" type="line"/>
      <point x="758" y="164" type="line"/>
      <point x="440" y="524" type="line"/>
      <point x="758" y="885" type="line"/>
      <point x="827" y="885" type="line"/>
    </contour>
  </outline>
</glyph>
<glyph name="paragraph" format="1">
  <advance width="1064.96"/>
  <unicode hex="00B6"/>
  <outline>
    <contour>
      <point x="881" y="1475" type="line"/>
      <point x="881" y="0" type="line"/>
      <point x="797" y="0" type="line"/>
      <point x="797" y="1401" type="line"/>
      <point x="584" y="1401" type="line"/>
      <point x="584" y="0" type="line"/>
      <point x="500" y="0" type="line"/>
      <point x="500" y="776" type="line"/>
      <point x="296.268656716" y="778.985074627"/>
      <point x="78.0" y="964.537313433"/>
      <point x="78" y="1122" type="qcurve" smooth="yes"/>
      <point x="78.0" y="1292.14925373"/>
      <point x="308.985074627" y="1475.0"/>
      <point x="506" y="1475" type="qcurve" smooth="yes"/>
    </contour>
  </outline>
</glyph>
<glyph name="periodcentered" format="1">
  <advance width="348.16"/>
  <unicode hex="00B7"/>
  <outline>
    <contour>
      <point x="174" y="647" type="qcurve" smooth="yes"/>
      <point x="207.582089552" y="647.0"/>
      <point x="252.0" y="602.582089552"/>
      <point x="252" y="569" type="qcurve" smooth="yes"/>
      <point x="252.0" y="535.417910448"/>
      <point x="207.582089552" y="492.0"/>
      <point x="174" y="492" type="qcurve" smooth="yes"/>
      <point x="140.417910448" y="492.0"/>
      <point x="96.0" y="535.417910448"/>
      <point x="96" y="569" type="qcurve" smooth="yes"/>
      <point x="96.0" y="602.582089552"/>
      <point x="140.417910448" y="647.0"/>
    </contour>
  </outline>
</glyph>
<glyph name="cedilla" format="1">
  <advance width="1024.0"/>
  <unicode hex="00B8"/>
  <outline>
    <contour>
      <point x="606" y="-94" type="qcurve" smooth="yes"/>
      <point x="668.686567164" y="-94.0"/>
      <point x="743.0" y="-154.791044776"/>
      <point x="743" y="-213" type="qcurve" smooth="yes"/>
      <point x="743.0" y="-304.791044776"/>
      <point x="529.074626866" y="-393.985074627"/>
      <point x="344" y="-391" type="qcurve"/>
      <point x="344" y="-346" type="line"/>
      <point x="511.910447761" y="-343.014925373"/>
      <point x="651.0" y="-276.731343284"/>
      <point x="651" y="-223" type="qcurve" smooth="yes"/>
      <point x="651.0" y="-193.895522388"/>
      <point x="609.805970149" y="-160.0"/>
      <point x="571" y="-160" type="qcurve" smooth="yes"/>
      <point x="537.417910448" y="-160.0"/>
      <point x="485.119402985" y="-172.059701493"/>
      <point x="459" y="-184" type="qcurve"/>
      <point x="420" y="-160" type="line"/>
      <point x="510" y="0" type="line"/>
      <point x="578" y="0" type="line"/>
      <point x="512" y="-115" type="line"/>
      <point x="535.134328358" y="-105.298507463"/>
      <point x="578.388059701" y="-94.0"/>
    </contour>
  </outline>
</glyph>
<glyph name="ordmasculine" format="1">
  <advance width="757.76"/>
  <unicode hex="00BA"/>
  <outline>
    <contour>
      <point x="379" y="1489" type="qcurve" smooth="yes"/>
      <point x="499.895522388" y="1489.0"/>
      <point x="651.0" y="1282.95522388"/>
      <point x="651" y="1124" type="qcurve" smooth="yes"/>
      <point x="651.0" y="965.044776119"/>
      <point x="499.895522388" y="762.0"/>
      <point x="379" y="762" type="qcurve" smooth="yes"/>
      <point x="258.104477612" y="762.0"/>
      <point x="106.0" y="967.044776119"/>
      <point x="106" y="1126" type="qcurve" smooth="yes"/>
      <point x="106.0" y="1284.95522388"/>
      <point x="258.104477612" y="1489.0"/>
    </contour>
    <contour>
      <point x="379" y="821" type="qcurve" smooth="yes"/>
      <point x="473.776119403" y="821.0"/>
      <point x="580.0" y="992.149253731"/>
      <point x="580" y="1122" type="qcurve" smooth="yes"/>
      <point x="580.0" y="1254.8358209"/>
      <point x="473.776119403" y="1430.0"/>
      <point x="379" y="1430" type="qcurve" smooth="yes"/>
      <point x="284.223880597" y="1430.0"/>
      <point x="178.0" y="1258.59701493"/>
      <point x="178" y="1128" type="qcurve" smooth="yes"/>
      <point x="178.0" y="995.164179104"/>
      <point x="284.223880597" y="821.0"/>
    </contour>
    <contour>
      <point x="637" y="598" type="line"/>
      <point x="637" y="535" type="line"/>
      <point x="121" y="535" type="line"/>
      <point x="121" y="598" type="line"/>
    </contour>
  </outline>
</glyph>
<glyph name="guillemotright" format="1">
  <advance width="901.12"/>
  <unicode hex="00BB"/>
  <outline>
    <contour>
      <point x="143" y="885" type="line"/>
      <point x="461" y="524" type="line"/>
      <point x="143" y="164" type="line"/>
      <point x="74" y="164" type="line"/>
      <point x="354" y="524" type="line"/>
      <point x="74" y="885" type="line"/>
    </contour>
    <contour>
      <point x="518" y="885" type="line"/>
      <point x="836" y="524" type="line"/>
      <point x="518" y="164" type="line"/>
      <point x="449" y="164" type="line"/>
      <point x="729" y="524" type="line"/>
      <point x="449" y="885" type="line"/>
    </contour>
  </outline>
</glyph>
<glyph name="AE" format="1">
  <advance width="1849.344"/>
  <unicode hex="00C6"/>
  <outline>
    <contour>
      <point x="1763" y="74" type="line"/>
      <point x="1763" y="0" type="line"/>
      <point x="944" y="0" type="line"/>
      <point x="944" y="412" type="line"/>
      <point x="350" y="412" type="line"/>
      <point x="127" y="0" type="line"/>
      <point x="33" y="0" type="line"/>
      <point x="834" y="1475" type="line"/>
      <point x="1739" y="1475" type="line"/>
      <point x="1739" y="1401" type="line"/>
      <point x="1034" y="1401" type="line"/>
      <point x="1034" y="811" type="line"/>
      <point x="1630" y="811" type="line"/>
      <point x="1630" y="737" type="line"/>
      <point x="1034" y="737" type="line"/>
      <point x="1034" y="74" type="line"/>
    </contour>
    <contour>
      <point x="389" y="485" type="line"/>
      <point x="944" y="485" type="line"/>
      <point x="944" y="1397" type="line"/>
      <point x="883" y="1397" type="line"/>
    </contour>
  </outline>
</glyph>
<glyph name="Ccedilla" format="1">
  <advance width="1167.36"/>
  <unicode hex="00C7"/>
  <outline>
    <contour>
      <point x="997" y="434" type="qcurve"/>
      <point x="1077" y="410" type="line"/>
      <point x="1032.97014925" y="230.895522388"/>
      <point x="831.119402985" y="-11.8059701493"/>
      <point x="655" y="-23" type="qcurve"/>
      <point x="604" y="-115" type="line"/>
      <point x="627.134328358" y="-105.298507463"/>
      <point x="671.134328358" y="-94.0"/>
      <point x="698" y="-94" type="qcurve" smooth="yes"/>
      <point x="760.686567164" y="-94.0"/>
      <point x="836.0" y="-154.791044776"/>
      <point x="836" y="-213" type="qcurve" smooth="yes"/>
      <point x="836.0" y="-304.791044776"/>
      <point x="621.074626866" y="-393.985074627"/>
      <point x="436" y="-391" type="qcurve"/>
      <point x="436" y="-346" type="line"/>
      <point x="604.656716418" y="-343.014925373"/>
      <point x="743.0" y="-276.731343284"/>
      <point x="743" y="-223" type="qcurve" smooth="yes"/>
      <point x="743.0" y="-193.895522388"/>
      <point x="702.059701493" y="-160.0"/>
      <point x="664" y="-160" type="qcurve" smooth="yes"/>
      <point x="629.671641791" y="-160.0"/>
      <point x="577.119402985" y="-172.059701493"/>
      <point x="551" y="-184" type="qcurve"/>
      <point x="512" y="-160" type="line"/>
      <point x="590" y="-23" type="line"/>
      <point x="366.865671642" y="-7.32835820896"/>
      <point x="117.0" y="404.641791045"/>
      <point x="117" y="733" type="qcurve" smooth="yes"/>
      <point x="117" y="737" type="line" smooth="yes"/>
      <point x="117.0" y="1078.04477612"/>
      <point x="383.71641791" y="1499.0"/>
      <point x="627" y="1499" type="qcurve" smooth="yes"/>
      <point x="799.388059701" y="1499.0"/>
      <point x="1021.47761194" y="1285.07462687"/>
      <point x="1067" y="1100" type="qcurve"/>
      <point x="987" y="1071" type="line"/>
      <point x="942.970149254" y="1238.91044776"/>
      <point x="768.791044776" y="1425.0"/>
      <point x="627" y="1425" type="qcurve" smooth="yes"/>
      <point x="415.805970149" y="1425.0"/>
      <point x="207.0" y="1035.02985075"/>
      <point x="207" y="741" type="qcurve" smooth="yes"/>
      <point x="207" y="737" type="line" smooth="yes"/>
      <point x="207.0" y="442.223880597"/>
      <point x="415.805970149" y="49.0"/>
      <point x="627" y="49" type="qcurve" smooth="yes"/>
      <point x="777.746268657" y="49.0"/>
      <point x="957.447761194" y="264.597014925"/>
    </contour>
  </outline>
</glyph>
<glyph name="Eth" format="1">
  <advance width="1333.248"/>
  <unicode hex="00D0"/>
  <outline>
    <contour>
      <point x="1217" y="741" type="qcurve" smooth="yes"/>
      <point x="1217" y="737" type="line" smooth="yes"/>
      <point x="1217.0" y="392.970149254"/>
      <point x="879.447761194" y="0.0"/>
      <point x="569" y="0" type="qcurve" smooth="yes"/>
      <point x="260" y="0" type="line"/>
      <point x="260" y="737" type="line"/>
      <point x="63" y="737" type="line"/>
      <point x="63" y="811" type="line"/>
      <point x="260" y="811" type="line"/>
      <point x="260" y="1475" type="line"/>
      <point x="580" y="1475" type="line" smooth="yes"/>
      <point x="891.194029851" y="1475.0"/>
      <point x="1217.0" y="1082.04477612"/>
    </contour>
    <contour>
      <point x="580" y="74" type="line" smooth="yes"/>
      <point x="835.223880597" y="74.0"/>
      <point x="1126.0" y="415.089552239"/>
      <point x="1126" y="733" type="qcurve" smooth="yes"/>
      <point x="1126" y="737" type="line" smooth="yes"/>
      <point x="1126.0" y="1057.89552239"/>
      <point x="838.402985075" y="1401.0"/>
      <point x="569" y="1401" type="qcurve" smooth="yes"/>
      <point x="350" y="1401" type="line"/>
      <point x="350" y="811" type="line"/>
      <point x="664" y="811" type="line"/>
      <point x="664" y="737" type="line"/>
      <point x="350" y="737" type="line"/>
      <point x="350" y="74" type="line"/>
    </contour>
  </outline>
</glyph>
<glyph name="Thorn" format="1">
  <advance width="1155.072"/>
  <unicode hex="00DE"/>
  <outline>
    <contour>
      <point x="598" y="1171" type="line" smooth="yes"/>
      <point x="818.149253731" y="1171.0"/>
      <point x="1063.0" y="957.014925373"/>
      <point x="1063" y="760" type="qcurve" smooth="yes"/>
      <point x="1063.0" y="562.985074627"/>
      <point x="817.611940299" y="344.0"/>
      <point x="590" y="344" type="qcurve" smooth="yes"/>
      <point x="279" y="344" type="line"/>
      <point x="279" y="0" type="line"/>
      <point x="188" y="0" type="line"/>
      <point x="188" y="1475" type="line"/>
      <point x="279" y="1475" type="line"/>
      <point x="279" y="1171" type="line"/>
    </contour>
    <contour>
      <point x="600" y="418" type="line" smooth="yes"/>
      <point x="779.104477612" y="418.0"/>
      <point x="973.0" y="585.850746269"/>
      <point x="973" y="756" type="qcurve" smooth="yes"/>
      <point x="973.0" y="919.432835821"/>
      <point x="779.552238806" y="1098.0"/>
      <point x="590" y="1098" type="qcurve" smooth="yes"/>
      <point x="279" y="1098" type="line"/>
      <point x="279" y="418" type="line"/>
    </contour>
  </outline>
</glyph>
<glyph name="Lslash" format="1">
  <advance width="1103.872"/>
  <unicode hex="0141"/>
  <outline>
    <contour>
      <point x="1069" y="74" type="line"/>
      <point x="1069" y="0" type="line"/>
      <point x="260" y="0" type="line"/>
      <point x="260" y="694" type="line"/>
      <point x="63" y="600" type="line"/>
      <point x="63" y="686" type="line"/>
      <point x="260" y="778" type="line"/>
      <point x="260" y="1475" type="line"/>
      <point x="350" y="1475" type="line"/>
      <point x="350" y="821" type="line"/>
      <point x="664" y="971" type="line"/>
      <point x="664" y="885" type="line"/>
      <point x="350" y="735" type="line"/>
      <point x="350" y="74" type="line"/>
    </contour>
  </outline>
</glyph>
<glyph name="oe" format="1">
  <advance width="1624.064"/>
  <unicode hex="0153"/>
  <outline>
    <contour>
      <point x="1540" y="518" type="qcurve" smooth="yes"/>
      <point x="1540" y="514" type="line"/>
      <point x="889" y="514" type="line"/>
      <point x="890.492537313" y="289.373134328"/>
      <point x="1065.2238806" y="45.0"/>
      <point x="1210" y="45" type="qcurve" smooth="yes"/>
      <point x="1292.8358209" y="45.0"/>
      <point x="1420.28358209" y="115.313432836"/>
      <point x="1477" y="178" type="qcurve"/>
      <point x="1526" y="131" type="line"/>
      <point x="1467.79104478" y="65.328358209"/>
      <point x="1308.23880597" y="-20.0"/>
      <point x="1206" y="-20" type="qcurve" smooth="yes"/>
      <point x="1071.67164179" y="-20.0"/>
      <point x="891.074626866" y="149.537313433"/>
      <point x="856" y="307" type="qcurve"/>
      <point x="840" y="307" type="line"/>
      <point x="803.432835821" y="159.23880597"/>
      <point x="627.820895522" y="-20.0"/>
      <point x="492" y="-20" type="qcurve" smooth="yes"/>
      <point x="311.402985075" y="-20.0"/>
      <point x="94.0" y="284.925373134"/>
      <point x="94" y="520" type="qcurve" smooth="yes"/>
      <point x="94" y="524" type="line" smooth="yes"/>
      <point x="94.0" y="759.820895522"/>
      <point x="311.402985075" y="1069.0"/>
      <point x="492" y="1069" type="qcurve" smooth="yes"/>
      <point x="627.820895522" y="1069.0"/>
      <point x="806.417910448" y="887.0"/>
      <point x="840" y="737" type="qcurve"/>
      <point x="856" y="737" type="line"/>
      <point x="889.582089552" y="887.0"/>
      <point x="1058.62686567" y="1069.0"/>
      <point x="1184" y="1069" type="qcurve" smooth="yes"/>
      <point x="1348.92537313" y="1069.0"/>
      <point x="1540.0" y="765.76119403"/>
    </contour>
    <contour>
      <point x="492" y="45" type="qcurve" smooth="yes"/>
      <point x="641.253731343" y="45.0"/>
      <point x="807.0" y="314.029850746"/>
      <point x="807" y="520" type="qcurve" smooth="yes"/>
      <point x="807" y="524" type="line" smooth="yes"/>
      <point x="807.0" y="732.208955224"/>
      <point x="641.253731343" y="1004.0"/>
      <point x="492" y="1004" type="qcurve" smooth="yes"/>
      <point x="342.0" y="1004.0"/>
      <point x="176.0" y="734.71641791"/>
      <point x="176" y="528" type="qcurve" smooth="yes"/>
      <point x="176" y="524" type="line" smooth="yes"/>
      <point x="176.0" y="316.537313433"/>
      <point x="342.0" y="45.0"/>
    </contour>
    <contour>
      <point x="891" y="580" type="qcurve"/>
      <point x="1456" y="580" type="line"/>
      <point x="1444.05970149" y="780.0"/>
      <point x="1309.37313433" y="1004.0"/>
      <point x="1184" y="1004" type="qcurve" smooth="yes"/>
      <point x="1055.64179104" y="1004.0"/>
      <point x="899.955223881" y="765.820895522"/>
    </contour>
  </outline>
</glyph>
<glyph name="florin" format="1">
  <advance width="860.16"/>
  <unicode hex="0192"/>
  <outline>
    <contour>
      <point x="672" y="1487" type="qcurve" smooth="yes"/>
      <point x="719.014925373" y="1487.0"/>
      <point x="804.925373134" y="1472.68656716"/>
      <point x="840" y="1460" type="qcurve"/>
      <point x="827" y="1382" type="line"/>
      <point x="785.955223881" y="1399.1641791"/>
      <point x="707.746268657" y="1411.0"/>
      <point x="657" y="1411" type="qcurve" smooth="yes"/>
      <point x="592.820895522" y="1411.0"/>
      <point x="494.671641791" y="1325.80597015"/>
      <point x="479" y="1237" type="qcurve" smooth="yes"/>
      <point x="426" y="934" type="line"/>
      <point x="688" y="934" type="line"/>
      <point x="676" y="860" type="line"/>
      <point x="414" y="860" type="line"/>
      <point x="229" y="-184" type="line" smooth="yes"/>
      <point x="209.597014925" y="-300.417910448"/>
      <point x="82.328358209" y="-389.0"/>
      <point x="-2" y="-389" type="qcurve" smooth="yes"/>
      <point x="-35.5820895522" y="-389.0"/>
      <point x="-99.8656716418" y="-376.462686567"/>
      <point x="-123" y="-369" type="qcurve"/>
      <point x="-111" y="-293" type="line"/>
      <point x="-83.3880597015" y="-301.955223881"/>
      <point x="-20.5970149254" y="-313.0"/>
      <point x="10" y="-313" type="qcurve" smooth="yes"/>
      <point x="56.2686567164" y="-313.0"/>
      <point x="133.059701493" y="-249.134328358"/>
      <point x="145" y="-176" type="qcurve" smooth="yes"/>
      <point x="328" y="860" type="line"/>
      <point x="113" y="860" type="line"/>
      <point x="125" y="934" type="line"/>
      <point x="340" y="934" type="line"/>
      <point x="393" y="1237" type="line" smooth="yes"/>
      <point x="416.134328358" y="1368.34328358"/>
      <point x="563.044776119" y="1487.0"/>
    </contour>
  </outline>
</glyph>
<glyph name="caron" format="1">
  <advance width="1024.0"/>
  <unicode hex="02C7"/>
  <outline>
    <contour>
      <point x="764" y="1532" type="line"/>
      <point x="817" y="1532" type="line"/>
      <point x="557" y="1212" type="line"/>
      <point x="467" y="1212" type="line"/>
      <point x="207" y="1532" type="line"/>
      <point x="264" y="1532" type="line"/>
      <point x="514" y="1298" type="line"/>
    </contour>
  </outline>
</glyph>
<glyph name="dotaccent" format="1">
  <advance width="1024.0"/>
  <unicode hex="02D9"/>
  <outline>
    <contour>
      <point x="575" y="1366" type="line"/>
      <point x="575" y="1212" type="line"/>
      <point x="449" y="1212" type="line"/>
      <point x="449" y="1366" type="line"/>
    </contour>
  </outline>
</glyph>
<glyph name="ring" format="1">
  <advance width="1024.0"/>
  <unicode hex="02DA"/>
  <outline>
    <contour>
      <point x="512" y="1552" type="qcurve" smooth="yes"/>
      <point x="588.119402985" y="1552.0"/>
      <point x="690.0" y="1451.37313433"/>
      <point x="690" y="1376" type="qcurve" smooth="yes"/>
      <point x="690.0" y="1299.88059701"/>
      <point x="588.119402985" y="1198.0"/>
      <point x="512" y="1198" type="qcurve" smooth="yes"/>
      <point x="435.880597015" y="1198.0"/>
      <point x="334.0" y="1299.88059701"/>
      <point x="334" y="1376" type="qcurve" smooth="yes"/>
      <point x="334.0" y="1451.37313433"/>
      <point x="435.880597015" y="1552.0"/>
    </contour>
    <contour>
      <point x="512" y="1253" type="qcurve" smooth="yes"/>
      <point x="562.746268657" y="1253.0"/>
      <point x="629.0" y="1323.01492537"/>
      <point x="629" y="1376" type="qcurve" smooth="yes"/>
      <point x="629.0" y="1428.23880597"/>
      <point x="562.746268657" y="1497.0"/>
      <point x="512" y="1497" type="qcurve" smooth="yes"/>
      <point x="461.253731343" y="1497.0"/>
      <point x="395.0" y="1428.23880597"/>
      <point x="395" y="1376" type="qcurve" smooth="yes"/>
      <point x="395.0" y="1323.01492537"/>
      <point x="461.253731343" y="1253.0"/>
    </contour>
  </outline>
</glyph>
<glyph name="ogonek" format="1">
  <advance width="1024.0"/>
  <unicode hex="02DB"/>
  <outline>
    <contour>
      <point x="727" y="-276" type="qcurve"/>
      <point x="748" y="-315" type="line"/>
      <point x="688.298507463" y="-348.582089552"/>
      <point x="566.208955224" y="-389.0"/>
      <point x="508" y="-389" type="qcurve" smooth="yes"/>
      <point x="425.164179104" y="-389.0"/>
      <point x="319.0" y="-309.134328358"/>
      <point x="319" y="-236" type="qcurve" smooth="yes"/>
      <point x="319.0" y="-168.089552239"/>
      <point x="423.104477612" y="-44.0298507463"/>
      <point x="494" y="0" type="qcurve"/>
      <point x="557" y="0" type="line"/>
      <point x="489.835820896" y="-50.7462686567"/>
      <point x="410.0" y="-166.791044776"/>
      <point x="410" y="-225" type="qcurve" smooth="yes"/>
      <point x="410.0" y="-269.776119403"/>
      <point x="473.492537313" y="-326.0"/>
      <point x="522" y="-326" type="qcurve" smooth="yes"/>
      <point x="575.731343284" y="-326.0"/>
      <point x="673.268656716" y="-299.134328358"/>
    </contour>
  </outline>
</glyph>
<glyph name="tilde" format="1">
  <advance width="1024.0"/>
  <unicode hex="02DC"/>
  <outline>
    <contour>
      <point x="754" y="1409" type="qcurve"/>
      <point x="815" y="1409" type="line"/>
      <point x="813.507462687" y="1309.74626866"/>
      <point x="736.626865672" y="1214.0"/>
      <point x="662" y="1214" type="qcurve" smooth="yes"/>
      <point x="582.149253731" y="1214.0"/>
      <point x="419.194029851" y="1333.0"/>
      <point x="358" y="1333" type="qcurve" smooth="yes"/>
      <point x="312.47761194" y="1333.0"/>
      <point x="270.0" y="1277.95522388"/>
      <point x="270" y="1219" type="qcurve"/>
      <point x="209" y="1219" type="line"/>
      <point x="210.492537313" y="1318.25373134"/>
      <point x="287.373134328" y="1413.0"/>
      <point x="362" y="1413" type="qcurve" smooth="yes"/>
      <point x="441.850746269" y="1413.0"/>
      <point x="604.805970149" y="1294.0"/>
      <point x="666" y="1294" type="qcurve" smooth="yes"/>
      <point x="711.52238806" y="1294.0"/>
      <point x="754.0" y="1349.29850746"/>
    </contour>
  </outline>
</glyph>
<glyph name="quotedblbase" format="1">
  <advance width="614.4"/>
  <unicode hex="201E"/>
  <outline>
    <contour>
      <point x="139" y="154" type="line"/>
      <point x="246" y="154" type="line"/>
      <point x="127" y="-246" type="line"/>
      <point x="68" y="-246" type="line"/>
    </contour>
    <contour>
      <point x="406" y="154" type="line"/>
      <point x="512" y="154" type="line"/>
      <point x="393" y="-246" type="line"/>
      <point x="334" y="-246" type="line"/>
    </contour>
  </outline>
</glyph>
<glyph name="perthousand" format="1">
  <advance width="2396.16"/>
  <unicode hex="2030"/>
  <outline>
    <contour>
      <point x="391" y="1489" type="qcurve" smooth="yes"/>
      <point x="522.343283582" y="1489.0"/>
      <point x="705.0" y="1276.89552239"/>
      <point x="705" y="1106" type="qcurve" smooth="yes"/>
      <point x="705.0" y="935.104477612"/>
      <point x="518.343283582" y="723.0"/>
      <point x="387" y="723" type="qcurve" smooth="yes"/>
      <point x="255.656716418" y="723.0"/>
      <point x="74.0" y="935.104477612"/>
      <point x="74" y="1106" type="qcurve" smooth="yes"/>
      <point x="74.0" y="1276.89552239"/>
      <point x="259.656716418" y="1489.0"/>
    </contour>
    <contour>
      <point x="389" y="793" type="qcurve" smooth="yes"/>
      <point x="494.223880597" y="793.0"/>
      <point x="621.0" y="965.194029851"/>
      <point x="621" y="1104" type="qcurve" smooth="yes"/>
      <point x="621.0" y="1242.80597015"/>
      <point x="495.71641791" y="1419.0"/>
      <point x="389" y="1419" type="qcurve" smooth="yes"/>
      <point x="283.776119403" y="1419.0"/>
      <point x="158.0" y="1246.80597015"/>
      <point x="158" y="1108" type="qcurve" smooth="yes"/>
      <point x="158.0" y="969.194029851"/>
      <point x="282.28358209" y="793.0"/>
    </contour>
    <contour>
      <point x="1251" y="752" type="qcurve" smooth="yes"/>
      <point x="1382.34328358" y="752.0"/>
      <point x="1565.0" y="539.895522388"/>
      <point x="1565" y="369" type="qcurve" smooth="yes"/>
      <point x="1565.0" y="197.358208955"/>
      <point x="1378.34328358" y="-14.0"/>
      <point x="1247" y="-14" type="qcurve" smooth="yes"/>
      <point x="1115.65671642" y="-14.0"/>
      <point x="934.0" y="197.358208955"/>
      <point x="934" y="369" type="qcurve" smooth="yes"/>
      <point x="934.0" y="539.895522388"/>
      <point x="1119.65671642" y="752.0"/>
    </contour>
    <contour>
      <point x="1249" y="55" type="qcurve" smooth="yes"/>
      <point x="1354.97014925" y="55.0"/>
      <point x="1481.0" y="227.447761194"/>
      <point x="1481" y="367" type="qcurve" smooth="yes"/>
      <point x="1481.0" y="505.805970149"/>
      <point x="1356.46268657" y="682.0"/>
      <point x="1249" y="682" type="qcurve" smooth="yes"/>
      <point x="1143.7761194" y="682.0"/>
      <point x="1018.0" y="509.805970149"/>
      <point x="1018" y="371" type="qcurve" smooth="yes"/>
      <point x="1018.0" y="231.447761194"/>
      <point x="1142.28358209" y="55.0"/>
    </contour>
    <contour>
      <point x="2009" y="752" type="qcurve" smooth="yes"/>
      <point x="2140.34328358" y="752.0"/>
      <point x="2322.0" y="539.895522388"/>
      <point x="2322" y="369" type="qcurve" smooth="yes"/>
      <point x="2322.0" y="197.358208955"/>
      <point x="2136.34328358" y="-14.0"/>
      <point x="2005" y="-14" type="qcurve" smooth="yes"/>
      <point x="1873.65671642" y="-14.0"/>
      <point x="1692.0" y="197.358208955"/>
      <point x="1692" y="369" type="qcurve" smooth="yes"/>
      <point x="1692.0" y="539.895522388"/>
      <point x="1877.65671642" y="752.0"/>
    </contour>
    <contour>
      <point x="2007" y="55" type="qcurve" smooth="yes"/>
      <point x="2112.2238806" y="55.0"/>
      <point x="2238.0" y="227.447761194"/>
      <point x="2238" y="367" type="qcurve" smooth="yes"/>
      <point x="2238.0" y="505.805970149"/>
      <point x="2113.71641791" y="682.0"/>
      <point x="2007" y="682" type="qcurve" smooth="yes"/>
      <point x="1901.7761194" y="682.0"/>
      <point x="1776.0" y="509.805970149"/>
      <point x="1776" y="371" type="qcurve" smooth="yes"/>
      <point x="1776.0" y="231.447761194"/>
      <point x="1900.28358209" y="55.0"/>
    </contour>
    <contour>
      <point x="1225" y="1475" type="line"/>
      <point x="1311" y="1475" type="line"/>
      <point x="852" y="723" type="line"/>
      <point x="414" y="0" type="line"/>
      <point x="328" y="0" type="line"/>
      <point x="786" y="752" type="line"/>
    </contour>
  </outline>
</glyph>
<glyph name="fl" format="1">
  <advance width="1058.816"/>
  <unicode hex="FB02"/>
  <outline>
    <contour>
      <point x="662" y="1528" type="qcurve"/>
      <point x="662" y="1446" type="line"/>
      <point x="627.671641791" y="1466.14925373"/>
      <point x="543.208955224" y="1489.0"/>
      <point x="485" y="1489" type="qcurve" smooth="yes"/>
      <point x="416.343283582" y="1489.0"/>
      <point x="338.0" y="1397.7761194"/>
      <point x="338" y="1303" type="qcurve" smooth="yes"/>
      <point x="338" y="1038" type="line"/>
      <point x="604" y="1038" type="line"/>
      <point x="604" y="973" type="line"/>
      <point x="338" y="973" type="line"/>
      <point x="338" y="0" type="line"/>
      <point x="256" y="0" type="line"/>
      <point x="256" y="973" type="line"/>
      <point x="39" y="973" type="line"/>
      <point x="39" y="1038" type="line"/>
      <point x="256" y="1038" type="line"/>
      <point x="256" y="1298" type="line" smooth="yes"/>
      <point x="256.0" y="1426.35820896"/>
      <point x="387.52238806" y="1554.0"/>
      <point x="492" y="1554" type="qcurve" smooth="yes"/>
      <point x="550.955223881" y="1554.0"/>
      <point x="627.671641791" y="1539.94029851"/>
    </contour>
    <contour>
      <point x="883" y="1561" type="line"/>
      <point x="883" y="0" type="line"/>
      <point x="801" y="0" type="line"/>
      <point x="801" y="1516" type="line"/>
    </contour>
  </outline>
</glyph>
<glyph name="bullet" format="1">
  <advance width="696.32"/>
  <outline>
    <contour>
      <point x="348" y="983" type="qcurve" smooth="yes"/>
      <point x="439.791044776" y="983.0"/>
      <point x="567.0" y="855.791044776"/>
      <point x="567" y="764" type="qcurve" smooth="yes"/>
      <point x="567.0" y="672.208955224"/>
      <point x="439.791044776" y="545.0"/>
      <point x="348" y="545" type="qcurve" smooth="yes"/>
      <point x="256.208955224" y="545.0"/>
      <point x="129.0" y="672.208955224"/>
      <point x="129" y="764" type="qcurve" smooth="yes"/>
      <point x="129.0" y="855.791044776"/>
      <point x="256.208955224" y="983.0"/>
    </contour>
  </outline>
</glyph>
<glyph name="endash.uc" format="1">
  <advance width="1228.8"/>
  <outline>
    <contour>
      <point x="1130" y="770" type="line"/>
      <point x="1130" y="684" type="line"/>
      <point x="98" y="684" type="line"/>
      <point x="98" y="770" type="line"/>
    </contour>
  </outline>
</glyph>
<glyph name="registered" format="1">
  <advance width="1089.536"/>
  <outline>
    <contour>
      <point x="600" y="1006" type="qcurve"/>
      <point x="754" y="782" type="line"/>
      <point x="676" y="782" type="line"/>
      <point x="524" y="1001" type="line"/>
      <point x="461" y="1001" type="line"/>
      <point x="461" y="782" type="line"/>
      <point x="393" y="782" type="line"/>
      <point x="393" y="1292" type="line"/>
      <point x="555" y="1292" type="line" smooth="yes"/>
      <point x="634.850746269" y="1292.0"/>
      <point x="727.0" y="1217.14925373"/>
      <point x="727" y="1147" type="qcurve" smooth="yes"/>
      <point x="727.0" y="1087.29850746"/>
      <point x="656.71641791" y="1014.95522388"/>
    </contour>
    <contour>
      <point x="545" y="1489" type="qcurve" smooth="yes"/>
      <point x="737.537313433" y="1489.0"/>
      <point x="1001.0" y="1224.53731343"/>
      <point x="1001" y="1032" type="qcurve" smooth="yes"/>
      <point x="1001.0" y="839.462686567"/>
      <point x="737.537313433" y="575.0"/>
      <point x="545" y="575" type="qcurve" smooth="yes"/>
      <point x="352.462686567" y="575.0"/>
      <point x="88.0" y="839.462686567"/>
      <point x="88" y="1032" type="qcurve" smooth="yes"/>
      <point x="88.0" y="1224.53731343"/>
      <point x="352.462686567" y="1489.0"/>
    </contour>
    <contour>
      <point x="545" y="623" type="qcurve" smooth="yes"/>
      <point x="717.388059701" y="623.0"/>
      <point x="950.0" y="859.611940299"/>
      <point x="950" y="1032" type="qcurve" smooth="yes"/>
      <point x="950.0" y="1205.13432836"/>
      <point x="717.388059701" y="1442.0"/>
      <point x="545" y="1442" type="qcurve" smooth="yes"/>
      <point x="371.865671642" y="1442.0"/>
      <point x="139.0" y="1205.13432836"/>
      <point x="139" y="1032" type="qcurve" smooth="yes"/>
      <point x="139.0" y="859.611940299"/>
      <point x="371.865671642" y="623.0"/>
    </contour>
    <contour>
      <point x="555" y="1061" type="line" smooth="yes"/>
      <point x="604.253731343" y="1061.0"/>
      <point x="659.0" y="1102.2238806"/>
      <point x="659" y="1147" type="qcurve" smooth="yes"/>
      <point x="659.0" y="1189.53731343"/>
      <point x="605.23880597" y="1233.0"/>
      <point x="553" y="1233" type="qcurve" smooth="yes"/>
      <point x="461" y="1233" type="line"/>
      <point x="461" y="1061" type="line"/>
    </contour>
  </outline>
</glyph>
